<svg width="86" height="75" viewBox="0 0 86 75" fill="none" xmlns="http://www.w3.org/2000/svg">
<path d="M63.9839 8.99326H70.4524C74.7307 8.99326 78.6186 10.7405 81.4349 13.5534C84.2509 16.3663 86.0001 20.2511 86.0001 24.5235V59.4693C86.0001 63.7429 84.2513 67.6266 81.4353 70.4395C78.6194 73.2528 74.7307 75 70.4524 75H15.5477C11.2694 75 7.38149 73.2528 4.56551 70.4395C1.74914 67.6266 0 63.7429 0 59.4693V24.5235C0 20.2499 1.74914 16.3659 4.56551 13.553C7.38149 10.7397 11.2694 8.99326 15.5477 8.99326H22.0165C22.6278 7.01479 23.8222 5.27422 25.2912 3.86719C27.789 1.47327 31.2178 0 33.8725 0H52.1271C54.7818 0 58.2111 1.47327 60.7085 3.86719C62.1771 5.27422 63.3714 7.01479 63.9835 8.99326H63.9839ZM43 23.0683C48.2314 23.0683 52.9699 25.1875 56.3988 28.6126C59.828 32.038 61.9495 36.771 61.9495 41.997C61.9495 47.2226 59.828 51.9556 56.3988 55.3811C52.9691 58.8062 48.2322 60.9254 43 60.9254C37.7679 60.9254 33.0309 58.8062 29.6013 55.3811C26.1724 51.9552 24.0509 47.223 24.0509 41.997C24.0509 36.7706 26.1724 32.0384 29.6013 28.6126C33.0301 25.1875 37.7687 23.0683 43 23.0683ZM52.277 32.7302C49.9036 30.3594 46.6235 28.8932 43 28.8932C39.377 28.8932 36.0964 30.3594 33.723 32.7302C31.3504 35.101 29.8818 38.3779 29.8818 41.997C29.8818 45.6157 31.3504 48.8931 33.723 51.2635C36.0964 53.6339 39.377 55.1009 43 55.1009C46.6227 55.1009 49.9036 53.6339 52.277 51.2635C54.6504 48.8931 56.1182 45.6161 56.1182 41.997C56.1182 38.3775 54.6504 35.101 52.277 32.7302ZM70.4524 14.8178H61.5116C59.9018 14.8178 58.5964 13.5138 58.5964 11.9057C58.5964 10.4681 57.7885 9.11711 56.6773 8.05302C55.2386 6.67381 53.4266 5.82489 52.1275 5.82489H33.8729C32.5738 5.82489 30.7619 6.67381 29.3231 8.05302C28.2119 9.1175 27.404 10.4681 27.404 11.9057C27.404 13.5138 26.0987 14.8178 24.4888 14.8178H15.5481C12.8784 14.8178 10.4493 15.9108 8.68766 17.6706C6.92596 19.4308 5.83127 21.8572 5.83127 24.5239V59.4697C5.83127 62.1356 6.92596 64.5629 8.68766 66.3226C10.4497 68.0824 12.8788 69.1759 15.5481 69.1759H70.4528C73.1224 69.1759 75.5523 68.0824 77.3136 66.3226C79.0757 64.5625 80.1696 62.1364 80.1696 59.4697V24.5239C80.1696 21.858 79.0753 19.4308 77.3132 17.6714C75.5511 15.9112 73.122 14.8178 70.4528 14.8178H70.4524Z" />
</svg>
