<svg width="270" height="235" viewBox="0 0 270 235" fill="none" xmlns="http://www.w3.org/2000/svg">
	<path d="M200.879 28.1789H221.188C234.619 28.1789 246.826 33.6536 255.667 42.4673C264.508 51.2811 270 63.4535 270 76.8403V186.337C270 199.728 264.51 211.897 255.669 220.71C246.828 229.525 234.619 235 221.188 235H48.8126C35.3808 235 23.1744 229.525 14.3336 220.71C5.49149 211.897 0 199.728 0 186.337V76.8403C0 63.4497 5.49149 51.2798 14.3336 42.4661C23.1744 33.6511 35.3808 28.1789 48.8126 28.1789H69.1216C71.0408 21.9797 74.7906 16.5259 79.4026 12.1172C87.2445 4.61624 98.0093 0 106.344 0H163.655C171.989 0 182.756 4.61624 190.596 12.1172C195.207 16.5259 198.957 21.9797 200.878 28.1789H200.879ZM135 72.2807C151.424 72.2807 166.301 78.9208 177.066 89.6528C187.832 100.386 194.492 115.216 194.492 131.591C194.492 147.964 187.832 162.794 177.066 173.527C166.298 184.259 151.427 190.9 135 190.9C118.574 190.9 103.702 184.259 92.9343 173.527C82.1692 162.793 75.5087 147.965 75.5087 131.591C75.5087 115.215 82.1692 100.387 92.9343 89.6528C103.699 78.9208 118.576 72.2807 135 72.2807ZM164.125 102.555C156.674 95.1261 146.376 90.532 135 90.532C123.625 90.532 113.326 95.1261 105.875 102.555C98.4257 109.983 93.8149 120.251 93.8149 131.591C93.8149 142.929 98.4257 153.198 105.875 160.626C113.326 168.053 123.625 172.649 135 172.649C146.373 172.649 156.674 168.053 164.125 160.626C171.577 153.198 176.185 142.93 176.185 131.591C176.185 120.25 171.577 109.983 164.125 102.555ZM221.188 46.4291H193.118C188.064 46.4291 183.965 42.3432 183.965 37.3045C183.965 32.8 181.429 28.5669 177.94 25.2328C173.423 20.9113 167.735 18.2513 163.656 18.2513H106.345C102.267 18.2513 96.578 20.9113 92.0609 25.2328C88.5722 28.5682 86.0358 32.8 86.0358 37.3045C86.0358 42.3432 81.9378 46.4291 76.8835 46.4291H48.8139C40.4323 46.4291 32.806 49.8538 27.2752 55.3679C21.7443 60.8832 18.3075 68.4859 18.3075 76.8416V186.338C18.3075 194.692 21.7443 202.297 27.2752 207.811C32.8073 213.325 40.4335 216.751 48.8139 216.751H221.189C229.57 216.751 237.199 213.325 242.728 207.811C248.261 202.296 251.695 194.694 251.695 186.338V76.8416C251.695 68.4884 248.259 60.8832 242.727 55.3704C237.195 49.8551 229.569 46.4291 221.189 46.4291H221.188Z" />
</svg>
