<svg width="144" height="48" viewBox="0 0 144 48" fill="none" xmlns="http://www.w3.org/2000/svg">
<path d="M41.5029 5.75569H45.6986C48.4738 5.75569 50.9956 6.87392 52.8224 8.67418C54.649 10.4744 55.7836 12.9607 55.7836 15.695V38.0604C55.7836 40.7955 54.6493 43.281 52.8227 45.0813C50.9962 46.8818 48.4738 48 45.6986 48H10.0848C7.30967 48 4.78775 46.8818 2.96117 45.0813C1.13434 43.281 -0.000244141 40.7955 -0.000244141 38.0604V15.695C-0.000244141 12.9599 1.13434 10.4742 2.96117 8.67392C4.78775 6.87341 7.30967 5.75569 10.0848 5.75569H14.2808C14.6773 4.48947 15.452 3.3755 16.4049 2.475C18.0251 0.942892 20.2492 0 21.9711 0H33.812C35.5339 0 37.7583 0.942892 39.3783 2.475C40.3309 3.3755 41.1056 4.48947 41.5026 5.75569H41.5029ZM27.8917 14.7637C31.285 14.7637 34.3586 16.12 36.5828 18.3121C38.8071 20.5043 40.1832 23.5334 40.1832 26.8781C40.1832 30.2225 38.8071 33.2516 36.5828 35.4439C34.3581 37.636 31.2855 38.9923 27.8917 38.9923C24.4979 38.9923 21.4252 37.636 19.2006 35.4439C16.9765 33.2513 15.6004 30.2227 15.6004 26.8781C15.6004 23.5332 16.9765 20.5046 19.2006 18.3121C21.4247 16.12 24.4984 14.7637 27.8917 14.7637ZM33.9092 20.9473C32.3697 19.43 30.2421 18.4916 27.8917 18.4916C25.5416 18.4916 23.4137 19.43 21.8742 20.9473C20.3352 22.4646 19.3826 24.5619 19.3826 26.8781C19.3826 29.194 20.3352 31.2916 21.8742 32.8086C23.4137 34.3257 25.5416 35.2646 27.8917 35.2646C30.2415 35.2646 32.3697 34.3257 33.9092 32.8086C35.4487 31.2916 36.4008 29.1943 36.4008 26.8781C36.4008 24.5616 35.4487 22.4646 33.9092 20.9473ZM45.6986 9.48339H39.8992C38.855 9.48339 38.0083 8.64883 38.0083 7.61965C38.0083 6.69958 37.4842 5.83495 36.7634 5.15393C35.8302 4.27124 34.6549 3.72793 33.8122 3.72793H21.9714C21.1287 3.72793 19.9535 4.27124 19.0202 5.15393C18.2994 5.8352 17.7754 6.69958 17.7754 7.61965C17.7754 8.64883 16.9287 9.48339 15.8844 9.48339H10.085C8.35334 9.48339 6.77771 10.1829 5.635 11.3092C4.49227 12.4357 3.7822 13.9886 3.7822 15.6953V38.0606C3.7822 39.7668 4.49227 41.3203 5.635 42.4465C6.77797 43.5727 8.3536 44.2726 10.085 44.2726H45.6989C47.4305 44.2726 49.0067 43.5727 50.1492 42.4465C51.2921 41.32 52.0017 39.7673 52.0017 38.0606V15.6953C52.0017 13.9891 51.2919 12.4357 50.1489 11.3097C49.0059 10.1832 47.4303 9.48339 45.6989 9.48339H45.6986Z" />
<path d="M63.5027 17.92C63.4162 17.92 63.3384 17.8901 63.2692 17.8304C63.2087 17.7621 63.1784 17.6853 63.1784 17.6V9.27997C63.1784 9.18608 63.2087 9.10928 63.2692 9.04957C63.3384 8.98986 63.4162 8.95997 63.5027 8.95997H64.9038C65.1114 8.95997 65.2625 9.05386 65.3578 9.24157L67.6411 13.2736L69.9243 9.24157C70.0197 9.05386 70.1708 8.95997 70.3784 8.95997H71.7665C71.8618 8.95997 71.9397 8.98986 72 9.04957C72.0694 9.10928 72.1038 9.18608 72.1038 9.27997V17.6C72.1038 17.6939 72.0694 17.7707 72 17.8304C71.9397 17.8901 71.8618 17.92 71.7665 17.92H70.2227C70.1274 17.92 70.0456 17.8901 69.9762 17.8304C69.9159 17.7707 69.8854 17.6939 69.8854 17.6V12.8L68.4324 15.4752C68.3202 15.6715 68.1684 15.7696 67.9784 15.7696H67.3038C67.1916 15.7696 67.1008 15.744 67.0314 15.6928C66.9619 15.6416 66.9016 15.5691 66.8497 15.4752L65.3838 12.8V17.6C65.3838 17.6853 65.3533 17.7621 65.293 17.8304C65.2327 17.8901 65.1548 17.92 65.0595 17.92H63.5027ZM76.5814 17.92C76.4945 17.92 76.4167 17.8901 76.3472 17.8304C76.2869 17.7621 76.2564 17.6853 76.2564 17.6V14.848L73.2474 9.36957C73.2214 9.29277 73.2084 9.24586 73.2084 9.22877C73.2084 9.16048 73.2344 9.10077 73.2863 9.04957C73.3466 8.98986 73.416 8.95997 73.4938 8.95997H75.1155C75.288 8.95997 75.4398 9.04957 75.5695 9.22877L77.4247 12.5312L79.2928 9.22877C79.3965 9.04957 79.5477 8.95997 79.7468 8.95997H81.3684C81.4463 8.95997 81.5111 8.98986 81.563 9.04957C81.6149 9.10077 81.6409 9.16048 81.6409 9.22877C81.6409 9.27146 81.6318 9.31837 81.6149 9.36957L78.6052 14.848V17.6C78.6052 17.6939 78.5702 17.7707 78.5014 17.8304C78.4404 17.8901 78.3626 17.92 78.2679 17.92H76.5814ZM88.8954 18.048C87.6499 18.048 86.677 17.7493 85.9764 17.152C85.2759 16.5461 84.9042 15.6885 84.8608 14.5792C84.8523 14.3317 84.8478 13.9392 84.8478 13.4016C84.8478 12.864 84.8523 12.4715 84.8608 12.224C84.9042 11.1403 85.2804 10.304 85.9894 9.71517C86.7075 9.12637 87.6759 8.83197 88.8954 8.83197C89.7172 8.83197 90.4307 8.96426 91.0359 9.22877C91.6502 9.49328 92.1172 9.83037 92.437 10.24C92.7658 10.6496 92.939 11.072 92.9559 11.5072C92.9559 11.584 92.9261 11.648 92.8651 11.6992C92.8132 11.7504 92.7483 11.776 92.6705 11.776H90.7764C90.6902 11.776 90.6208 11.7632 90.5689 11.7376C90.517 11.712 90.4742 11.6651 90.4391 11.5968C90.3269 11.3493 90.1498 11.136 89.9072 10.9568C89.6653 10.7691 89.328 10.6752 88.8954 10.6752C87.8666 10.6752 87.3256 11.2128 87.2737 12.288C87.2653 12.5269 87.2608 12.8981 87.2608 13.4016C87.2608 13.8965 87.2653 14.2677 87.2737 14.5152C87.3256 15.6416 87.8796 16.2048 88.9343 16.2048C89.4448 16.2048 89.8515 16.0768 90.1537 15.8208C90.4651 15.5563 90.6208 15.1552 90.6208 14.6176V14.3744H89.4013C89.3066 14.3744 89.2288 14.3445 89.1678 14.2848C89.1075 14.2165 89.077 14.1355 89.077 14.0416V13.0944C89.077 13.0005 89.1075 12.9237 89.1678 12.864C89.2288 12.7957 89.3066 12.7616 89.4013 12.7616H92.6705C92.7658 12.7616 92.8437 12.7957 92.904 12.864C92.965 12.9237 92.9948 13.0005 92.9948 13.0944V14.5536C92.9948 15.2789 92.8262 15.9061 92.4889 16.4352C92.1516 16.9557 91.6716 17.3568 91.0489 17.6384C90.4352 17.9115 89.7172 18.048 88.8954 18.048ZM93.7615 17.92C93.6928 17.92 93.6279 17.8944 93.5669 17.8432C93.515 17.7835 93.4891 17.7195 93.4891 17.6512C93.4891 17.6 93.4936 17.5616 93.5021 17.536L96.5507 9.31837C96.5766 9.21597 96.6331 9.13066 96.7193 9.06237C96.8063 8.99408 96.9185 8.95997 97.0566 8.95997H98.9767C99.1155 8.95997 99.2277 8.99408 99.3139 9.06237C99.4009 9.13066 99.4567 9.21597 99.4826 9.31837L102.518 17.536L102.544 17.6512C102.544 17.7195 102.514 17.7835 102.453 17.8432C102.402 17.8944 102.337 17.92 102.259 17.92H100.663C100.456 17.92 100.317 17.8304 100.248 17.6512L99.7421 16.3456H96.2783L95.7853 17.6512C95.7165 17.8304 95.5738 17.92 95.3572 17.92H93.7615ZM99.2231 14.5024L98.0166 11.1232L96.8102 14.5024H99.2231ZM103.891 17.92C103.805 17.92 103.727 17.8901 103.658 17.8304C103.597 17.7621 103.567 17.6853 103.567 17.6V9.27997C103.567 9.18608 103.597 9.10928 103.658 9.04957C103.727 8.98986 103.805 8.95997 103.891 8.95997H105.604C105.699 8.95997 105.776 8.98986 105.837 9.04957C105.898 9.10928 105.928 9.18608 105.928 9.27997V15.9872H109.859C109.954 15.9872 110.032 16.0213 110.093 16.0896C110.153 16.1493 110.183 16.2261 110.183 16.32V17.6C110.183 17.6853 110.153 17.7621 110.093 17.8304C110.032 17.8901 109.954 17.92 109.859 17.92H103.891ZM111.632 17.92C111.546 17.92 111.468 17.8901 111.398 17.8304C111.338 17.7621 111.307 17.6853 111.307 17.6V9.27997C111.307 9.18608 111.338 9.10928 111.398 9.04957C111.468 8.98986 111.546 8.95997 111.632 8.95997H113.344C113.44 8.95997 113.517 8.98986 113.578 9.04957C113.639 9.10928 113.669 9.18608 113.669 9.27997V15.9872H117.599C117.695 15.9872 117.773 16.0213 117.833 16.0896C117.894 16.1493 117.924 16.2261 117.924 16.32V17.6C117.924 17.6853 117.894 17.7621 117.833 17.8304C117.773 17.8901 117.695 17.92 117.599 17.92H111.632ZM119.373 17.92C119.286 17.92 119.208 17.8901 119.139 17.8304C119.078 17.7621 119.048 17.6853 119.048 17.6V9.27997C119.048 9.18608 119.078 9.10928 119.139 9.04957C119.208 8.98986 119.286 8.95997 119.373 8.95997H125.431C125.526 8.95997 125.604 8.98986 125.665 9.04957C125.725 9.10928 125.755 9.18608 125.755 9.27997V10.4832C125.755 10.5685 125.725 10.6453 125.665 10.7136C125.604 10.7733 125.526 10.8032 125.431 10.8032H121.293V12.5312H125.146C125.24 12.5312 125.318 12.5653 125.379 12.6336C125.44 12.6933 125.47 12.7701 125.47 12.864V13.9776C125.47 14.0629 125.44 14.1397 125.379 14.208C125.318 14.2677 125.24 14.2976 125.146 14.2976H121.293V16.0768H125.535C125.63 16.0768 125.707 16.1067 125.768 16.1664C125.829 16.2261 125.859 16.3029 125.859 16.3968V17.6C125.859 17.6853 125.829 17.7621 125.768 17.8304C125.707 17.8901 125.63 17.92 125.535 17.92H119.373ZM127.658 17.92C127.572 17.92 127.494 17.8901 127.424 17.8304C127.364 17.7621 127.334 17.6853 127.334 17.6V9.27997C127.334 9.18608 127.364 9.10928 127.424 9.04957C127.494 8.98986 127.572 8.95997 127.658 8.95997H131.187C132.32 8.95997 133.202 9.21597 133.833 9.72797C134.473 10.2315 134.793 10.9483 134.793 11.8784C134.793 12.4757 134.65 12.9835 134.365 13.4016C134.08 13.8197 133.686 14.1397 133.184 14.3616L134.962 17.5104C134.988 17.5616 135.001 17.6085 135.001 17.6512C135.001 17.7195 134.971 17.7835 134.91 17.8432C134.858 17.8944 134.798 17.92 134.728 17.92H133.003C132.752 17.92 132.575 17.8048 132.471 17.5744L130.992 14.7584H129.669V17.6C129.669 17.6939 129.634 17.7707 129.565 17.8304C129.505 17.8901 129.427 17.92 129.331 17.92H127.658ZM131.161 12.9408C131.559 12.9408 131.861 12.8469 132.069 12.6592C132.276 12.4629 132.38 12.1941 132.38 11.8528C132.38 11.5115 132.276 11.2427 132.069 11.0464C131.87 10.8416 131.567 10.7392 131.161 10.7392H129.669V12.9408H131.161ZM138.608 17.92C138.522 17.92 138.444 17.8901 138.374 17.8304C138.314 17.7621 138.284 17.6853 138.284 17.6V14.848L135.274 9.36957C135.248 9.29277 135.235 9.24586 135.235 9.22877C135.235 9.16048 135.261 9.10077 135.313 9.04957C135.374 8.98986 135.443 8.95997 135.521 8.95997H137.142C137.315 8.95997 137.467 9.04957 137.597 9.22877L139.452 12.5312L141.32 9.22877C141.424 9.04957 141.575 8.95997 141.774 8.95997H143.395C143.473 8.95997 143.538 8.98986 143.59 9.04957C143.642 9.10077 143.668 9.16048 143.668 9.22877C143.668 9.27146 143.659 9.31837 143.642 9.36957L140.632 14.848V17.6C140.632 17.6939 140.597 17.7707 140.528 17.8304C140.467 17.8901 140.39 17.92 140.295 17.92H138.608Z" />
<path d="M63.1978 35.2C63.1416 35.2 63.0939 35.1834 63.0545 35.1501C63.0208 35.1112 63.0039 35.0641 63.0039 35.0087V29.5757C63.0039 29.5147 63.0208 29.4675 63.0545 29.4343C63.0939 29.3954 63.1416 29.376 63.1978 29.376H65.112C65.9611 29.376 66.5734 29.5646 66.9503 29.9418C67.3271 30.3134 67.5237 30.8764 67.5405 31.6307C67.5464 31.7916 67.549 32.0079 67.549 32.2797C67.549 32.5515 67.5464 32.7706 67.5405 32.937C67.5237 33.4639 67.4335 33.8938 67.2707 34.2266C67.1131 34.5538 66.8634 34.7979 66.5202 34.9587C66.1771 35.1196 65.7217 35.2 65.1542 35.2H63.1978ZM65.112 34.4928C65.4999 34.4928 65.8061 34.4401 66.0311 34.3347C66.2614 34.2293 66.4275 34.0629 66.5287 33.8355C66.6357 33.6026 66.6947 33.292 66.7057 32.9037C66.7168 32.5709 66.7226 32.3629 66.7226 32.2797C66.7226 32.1909 66.7168 31.9857 66.7057 31.664C66.6947 31.1149 66.5624 30.7155 66.3094 30.4659C66.0564 30.2108 65.6432 30.0832 65.0698 30.0832H63.8303V34.4928H65.112ZM70.4621 35.2832C69.8828 35.2832 69.419 35.1085 69.0707 34.7591C68.7276 34.404 68.5395 33.9215 68.5057 33.3114L68.4973 33.0285L68.5057 32.7539C68.5453 32.1549 68.736 31.6779 69.0791 31.3229C69.4275 30.9679 69.8861 30.7904 70.4536 30.7904C71.0776 30.7904 71.5609 30.9873 71.904 31.3811C72.2471 31.7694 72.4184 32.2963 72.4184 32.9619V33.1034C72.4184 33.1589 72.3989 33.206 72.3594 33.2448C72.3256 33.2781 72.2809 33.2947 72.2244 33.2947H69.3068V33.3696C69.3237 33.7301 69.4333 34.038 69.6357 34.2931C69.8439 34.5427 70.1163 34.6675 70.4536 34.6675C70.7124 34.6675 70.9232 34.6176 71.0861 34.5178C71.2547 34.4124 71.3786 34.3042 71.4571 34.1933C71.5077 34.1267 71.544 34.0879 71.5667 34.0768C71.5946 34.0602 71.6426 34.0519 71.7101 34.0519H72.1232C72.1738 34.0519 72.216 34.0657 72.2497 34.0935C72.2835 34.1212 72.3003 34.16 72.3003 34.2099C72.3003 34.332 72.2218 34.4789 72.0642 34.6509C71.9124 34.8229 71.6958 34.9726 71.4149 35.1002C71.1392 35.2222 70.8221 35.2832 70.4621 35.2832ZM71.6173 32.7207V32.6957C71.6173 32.313 71.5103 32.0024 71.2969 31.7639C71.0886 31.5198 70.8078 31.3978 70.4536 31.3978C70.0995 31.3978 69.8186 31.5198 69.6104 31.7639C69.408 32.0024 69.3068 32.313 69.3068 32.6957V32.7207H71.6173ZM74.9442 35.2832C74.5511 35.2832 74.219 35.2222 73.9492 35.1002C73.6852 34.9726 73.4854 34.8284 73.3505 34.6675C73.2214 34.5067 73.1565 34.3736 73.1565 34.2682C73.1565 34.2127 73.1767 34.1711 73.2156 34.1434C73.261 34.1101 73.3057 34.0935 73.3505 34.0935H73.7299C73.7864 34.0935 73.837 34.1212 73.8817 34.1767C74.0167 34.332 74.1632 34.454 74.3202 34.5427C74.4778 34.6315 74.6887 34.6759 74.9527 34.6759C75.2452 34.6759 75.4813 34.6204 75.661 34.5095C75.8465 34.393 75.9392 34.2349 75.9392 34.0352C75.9392 33.9021 75.9003 33.7939 75.8212 33.7107C75.7485 33.622 75.6188 33.5471 75.4333 33.4861C75.2536 33.4195 74.9838 33.3474 74.6238 33.2698C74.1347 33.1644 73.7864 33.0119 73.5782 32.8122C73.3758 32.6125 73.2746 32.3546 73.2746 32.0384C73.2746 31.8277 73.3369 31.628 73.4601 31.4394C73.5898 31.2453 73.7754 31.0899 74.0167 30.9735C74.2644 30.8514 74.5596 30.7904 74.9021 30.7904C75.2621 30.7904 75.5682 30.8487 75.8212 30.9651C76.0742 31.0816 76.2629 31.2203 76.3862 31.3811C76.5159 31.5365 76.5801 31.6668 76.5801 31.7722C76.5801 31.8221 76.5606 31.8637 76.5211 31.897C76.4874 31.9303 76.4452 31.9469 76.3946 31.9469H76.0404C75.973 31.9469 75.9172 31.9192 75.8718 31.8637C75.7823 31.7583 75.7031 31.6779 75.6357 31.6224C75.5741 31.5614 75.4813 31.5087 75.3574 31.4643C75.2394 31.42 75.0876 31.3978 74.9021 31.3978C74.6322 31.3978 74.4247 31.456 74.2781 31.5725C74.1321 31.6834 74.0588 31.8304 74.0588 32.0135C74.0588 32.1299 74.0899 32.2298 74.1516 32.313C74.2138 32.3906 74.3319 32.4627 74.5057 32.5293C74.6861 32.5959 74.9442 32.6652 75.2815 32.7373C75.816 32.8482 76.1922 33.0091 76.4115 33.2199C76.6365 33.4251 76.7488 33.6885 76.7488 34.0103C76.7488 34.2488 76.6787 34.4651 76.5379 34.6592C76.3978 34.8533 76.1896 35.0059 75.9139 35.1168C75.6441 35.2277 75.3211 35.2832 74.9442 35.2832ZM77.8515 30.0666C77.7957 30.0666 77.7477 30.0499 77.7081 30.0167C77.6744 29.9778 77.6575 29.9307 77.6575 29.8752V29.4259C77.6575 29.3704 77.6744 29.3233 77.7081 29.2845C77.7477 29.2456 77.7957 29.2263 77.8515 29.2263H78.3827C78.4391 29.2263 78.4871 29.2456 78.5261 29.2845C78.5656 29.3233 78.5851 29.3704 78.5851 29.4259V29.8752C78.5851 29.9307 78.5656 29.9778 78.5261 30.0167C78.4871 30.0499 78.4391 30.0666 78.3827 30.0666H77.8515ZM77.9189 35.2C77.8631 35.2 77.8151 35.1834 77.7756 35.1501C77.7418 35.1112 77.725 35.0641 77.725 35.0087V31.065C77.725 31.0095 77.7418 30.9651 77.7756 30.9319C77.8151 30.893 77.8631 30.8736 77.9189 30.8736H78.3237C78.3801 30.8736 78.4249 30.893 78.4586 30.9319C78.4982 30.9651 78.5176 31.0095 78.5176 31.065V35.0087C78.5176 35.0641 78.4982 35.1112 78.4586 35.1501C78.4249 35.1834 78.3801 35.2 78.3237 35.2H77.9189ZM81.5637 37.0304C81.1025 37.0304 80.7315 36.9528 80.4506 36.7975C80.1691 36.6477 79.9699 36.4757 79.8519 36.2816C79.7338 36.0875 79.669 35.9128 79.6579 35.7575C79.6521 35.702 79.669 35.6549 79.7085 35.616C79.7533 35.5772 79.8013 35.5578 79.8519 35.5578H80.2566C80.3072 35.5578 80.3494 35.5688 80.3831 35.5911C80.4169 35.6188 80.4448 35.6659 80.4675 35.7325C80.5349 35.91 80.6445 36.0625 80.7963 36.1901C80.9533 36.3232 81.1952 36.3898 81.5215 36.3898C81.9373 36.3898 82.2435 36.301 82.4406 36.1235C82.6372 35.9516 82.7358 35.6437 82.7358 35.2V34.6343C82.5892 34.8173 82.4037 34.9643 82.1792 35.0752C81.9542 35.1806 81.6869 35.2333 81.3782 35.2333C80.7821 35.2333 80.3351 35.0475 80.0374 34.6759C79.7449 34.2987 79.5905 33.8216 79.5736 33.2448L79.5652 33.0119L79.5736 32.7872C79.5905 32.2159 79.7475 31.7416 80.0458 31.3645C80.3436 30.9818 80.7879 30.7904 81.3782 30.7904C81.9684 30.7904 82.429 31.004 82.7611 31.4311V31.0733C82.7611 31.0178 82.7779 30.9707 82.8117 30.9319C82.8506 30.893 82.8986 30.8736 82.955 30.8736H83.3429C83.3987 30.8736 83.4467 30.893 83.4863 30.9319C83.5252 30.9707 83.5453 31.0178 83.5453 31.0733V35.1085C83.5453 36.3898 82.8843 37.0304 81.5637 37.0304ZM81.5468 34.5677C81.9289 34.5677 82.2182 34.4429 82.4154 34.1933C82.6119 33.9437 82.7189 33.6469 82.7358 33.3031C82.741 33.2531 82.7442 33.156 82.7442 33.0119C82.7442 32.8732 82.741 32.7789 82.7358 32.729C82.7189 32.3851 82.6119 32.0883 82.4154 31.8387C82.224 31.5891 81.9347 31.4643 81.5468 31.4643C81.1472 31.4643 80.8579 31.5864 80.6783 31.8304C80.4979 32.0744 80.4 32.3962 80.3831 32.7955L80.3747 33.0119L80.3831 33.2365C80.4 33.6303 80.4979 33.952 80.6783 34.2016C80.8579 34.4456 81.1472 34.5677 81.5468 34.5677ZM84.9931 35.2C84.9367 35.2 84.8886 35.1834 84.8497 35.1501C84.816 35.1112 84.7991 35.0641 84.7991 35.0087V31.065C84.7991 31.0095 84.816 30.9651 84.8497 30.9319C84.8886 30.893 84.9367 30.8736 84.9931 30.8736H85.3894C85.4452 30.8736 85.4906 30.893 85.5243 30.9319C85.5632 30.9651 85.5833 31.0095 85.5833 31.065V31.4311C85.7462 31.2258 85.9375 31.0677 86.1568 30.9568C86.3812 30.8459 86.6595 30.7904 86.9916 30.7904C87.5312 30.7904 87.9496 30.9624 88.248 31.3063C88.5516 31.6446 88.7034 32.0967 88.7034 32.6624V35.0087C88.7034 35.0641 88.6832 35.1112 88.6443 35.1501C88.6106 35.1834 88.5652 35.2 88.5094 35.2H88.0878C88.0314 35.2 87.9833 35.1834 87.9444 35.1501C87.9107 35.1112 87.8938 35.0641 87.8938 35.0087V32.704C87.8938 32.3102 87.7952 32.0051 87.5987 31.7888C87.4074 31.5725 87.1291 31.4643 86.7639 31.4643C86.4097 31.4643 86.1282 31.5752 85.9206 31.7971C85.7124 32.0135 85.6086 32.3157 85.6086 32.704V35.0087C85.6086 35.0641 85.5885 35.1112 85.5496 35.1501C85.5159 35.1834 85.4705 35.2 85.4147 35.2H84.9931ZM92.5161 36.7808C92.4713 36.7808 92.4318 36.7642 92.3981 36.7309C92.3643 36.6976 92.3475 36.6588 92.3475 36.6144C92.3475 36.5756 92.3617 36.5256 92.3896 36.4647L93.0389 34.9421L91.4283 31.1898C91.4004 31.1176 91.3862 31.0705 91.3862 31.0483C91.3862 30.9984 91.403 30.9568 91.4368 30.9235C91.4705 30.8903 91.5127 30.8736 91.5632 30.8736H91.9764C92.0666 30.8736 92.1341 30.9208 92.1788 31.0151L93.4605 34.0435L94.776 31.0151C94.8214 30.9208 94.8915 30.8736 94.9868 30.8736H95.3831C95.4337 30.8736 95.4759 30.8903 95.5096 30.9235C95.5434 30.9568 95.5602 30.9957 95.5602 31.04C95.5602 31.0567 95.5466 31.1066 95.5181 31.1898L93.1232 36.6394C93.0785 36.7336 93.0084 36.7808 92.9124 36.7808H92.5161ZM98.0497 35.2832C97.4309 35.2832 96.9503 35.1112 96.6078 34.7674C96.2705 34.4235 96.0902 33.9659 96.0681 33.3946L96.0597 33.0368L96.0681 32.6791C96.0902 32.1133 96.2731 31.6584 96.6162 31.3146C96.9587 30.9651 97.4368 30.7904 98.0497 30.7904C98.6621 30.7904 99.1401 30.9651 99.4832 31.3146C99.8257 31.6584 100.009 32.1133 100.031 32.6791C100.037 32.74 100.04 32.8593 100.04 33.0368C100.04 33.2143 100.037 33.3336 100.031 33.3946C100.009 33.9659 99.8257 34.4235 99.4832 34.7674C99.1459 35.1112 98.6679 35.2832 98.0497 35.2832ZM98.0497 34.6426C98.4039 34.6426 98.6822 34.5317 98.8845 34.3098C99.0921 34.0879 99.205 33.769 99.2218 33.353C99.227 33.2975 99.2303 33.1921 99.2303 33.0368C99.2303 32.8815 99.227 32.7761 99.2218 32.7207C99.205 32.3047 99.0921 31.9857 98.8845 31.7639C98.6822 31.542 98.4039 31.4311 98.0497 31.4311C97.6956 31.4311 97.4141 31.542 97.2065 31.7639C96.9983 31.9857 96.8886 32.3047 96.8776 32.7207L96.8692 33.0368L96.8776 33.353C96.8886 33.769 96.9983 34.0879 97.2065 34.3098C97.4141 34.5317 97.6956 34.6426 98.0497 34.6426ZM102.732 35.2832C102.197 35.2832 101.784 35.1141 101.492 34.7757C101.2 34.4318 101.054 33.977 101.054 33.4112V31.065C101.054 31.0095 101.07 30.9651 101.104 30.9319C101.143 30.893 101.191 30.8736 101.248 30.8736H101.669C101.725 30.8736 101.77 30.893 101.804 30.9319C101.843 30.9651 101.863 31.0095 101.863 31.065V33.3696C101.863 34.196 102.228 34.6093 102.959 34.6093C103.314 34.6093 103.594 34.5011 103.803 34.2848C104.01 34.0629 104.115 33.7579 104.115 33.3696V31.065C104.115 31.0095 104.131 30.9651 104.165 30.9319C104.204 30.893 104.252 30.8736 104.309 30.8736H104.73C104.786 30.8736 104.831 30.893 104.865 30.9319C104.899 30.9651 104.916 31.0095 104.916 31.065V35.0087C104.916 35.0641 104.899 35.1112 104.865 35.1501C104.831 35.1834 104.786 35.2 104.73 35.2H104.334C104.277 35.2 104.229 35.1834 104.19 35.1501C104.157 35.1112 104.14 35.0641 104.14 35.0087V34.6426C103.982 34.8533 103.791 35.0142 103.566 35.1251C103.341 35.2305 103.063 35.2832 102.732 35.2832ZM106.362 35.2C106.306 35.2 106.258 35.1834 106.219 35.1501C106.185 35.1112 106.168 35.0641 106.168 35.0087V31.0733C106.168 31.0178 106.185 30.9707 106.219 30.9319C106.258 30.893 106.306 30.8736 106.362 30.8736H106.75C106.806 30.8736 106.854 30.893 106.893 30.9319C106.933 30.9707 106.952 31.0178 106.952 31.0733V31.4394C107.183 31.0622 107.576 30.8736 108.133 30.8736H108.462C108.518 30.8736 108.563 30.893 108.597 30.9319C108.636 30.9651 108.656 31.0095 108.656 31.065V31.4061C108.656 31.4616 108.636 31.5059 108.597 31.5392C108.563 31.5725 108.518 31.5891 108.462 31.5891H107.956C107.652 31.5891 107.414 31.6779 107.239 31.8554C107.065 32.0273 106.978 32.2631 106.978 32.5626V35.0087C106.978 35.0641 106.958 35.1112 106.919 35.1501C106.879 35.1834 106.832 35.2 106.775 35.2H106.362ZM111.443 35.2C111.387 35.2 111.339 35.1834 111.3 35.1501C111.266 35.1112 111.249 35.0641 111.249 35.0087V29.4842C111.249 29.4287 111.266 29.3843 111.3 29.3511C111.339 29.3122 111.387 29.2928 111.443 29.2928H111.839C111.896 29.2928 111.941 29.3122 111.974 29.3511C112.014 29.3843 112.033 29.4287 112.033 29.4842V35.0087C112.033 35.0641 112.014 35.1112 111.974 35.1501C111.941 35.1834 111.896 35.2 111.839 35.2H111.443ZM113.418 30.0666C113.362 30.0666 113.314 30.0499 113.274 30.0167C113.24 29.9778 113.224 29.9307 113.224 29.8752V29.4259C113.224 29.3704 113.24 29.3233 113.274 29.2845C113.314 29.2456 113.362 29.2263 113.418 29.2263H113.949C114.005 29.2263 114.053 29.2456 114.092 29.2845C114.132 29.3233 114.151 29.3704 114.151 29.4259V29.8752C114.151 29.9307 114.132 29.9778 114.092 30.0167C114.053 30.0499 114.005 30.0666 113.949 30.0666H113.418ZM113.485 35.2C113.429 35.2 113.381 35.1834 113.342 35.1501C113.308 35.1112 113.291 35.0641 113.291 35.0087V31.065C113.291 31.0095 113.308 30.9651 113.342 30.9319C113.381 30.893 113.429 30.8736 113.485 30.8736H113.89C113.946 30.8736 113.991 30.893 114.025 30.9319C114.064 30.9651 114.084 31.0095 114.084 31.065V35.0087C114.084 35.0641 114.064 35.1112 114.025 35.1501C113.991 35.1834 113.946 35.2 113.89 35.2H113.485ZM115.966 35.2C115.91 35.2 115.862 35.1834 115.823 35.1501C115.789 35.1112 115.772 35.0641 115.772 35.0087V31.5392H115.055C114.999 31.5392 114.951 31.5226 114.912 31.4893C114.878 31.4504 114.861 31.4033 114.861 31.3479V31.065C114.861 31.0095 114.878 30.9651 114.912 30.9319C114.951 30.893 114.999 30.8736 115.055 30.8736H115.772V30.4576C115.772 29.5147 116.255 29.0432 117.222 29.0432H117.728C117.784 29.0432 117.83 29.0626 117.863 29.1015C117.902 29.1347 117.922 29.1791 117.922 29.2346V29.5175C117.922 29.5729 117.902 29.62 117.863 29.6589C117.83 29.6922 117.784 29.7088 117.728 29.7088H117.239C116.986 29.7088 116.809 29.7754 116.708 29.9085C116.607 30.036 116.556 30.233 116.556 30.4992V30.8736H117.644C117.7 30.8736 117.745 30.893 117.779 30.9319C117.818 30.9651 117.838 31.0095 117.838 31.065V31.3479C117.838 31.4033 117.818 31.4504 117.779 31.4893C117.745 31.5226 117.7 31.5392 117.644 31.5392H116.556V35.0087C116.556 35.0641 116.536 35.1112 116.497 35.1501C116.464 35.1834 116.418 35.2 116.362 35.2H115.966ZM120.25 35.2832C119.67 35.2832 119.207 35.1085 118.858 34.7591C118.515 34.404 118.327 33.9215 118.293 33.3114L118.285 33.0285L118.293 32.7539C118.332 32.1549 118.524 31.6779 118.867 31.3229C119.215 30.9679 119.673 30.7904 120.241 30.7904C120.865 30.7904 121.349 30.9873 121.692 31.3811C122.034 31.7694 122.206 32.2963 122.206 32.9619V33.1034C122.206 33.1589 122.186 33.206 122.147 33.2448C122.113 33.2781 122.068 33.2947 122.012 33.2947H119.094V33.3696C119.111 33.7301 119.221 34.038 119.423 34.2931C119.631 34.5427 119.904 34.6675 120.241 34.6675C120.499 34.6675 120.71 34.6176 120.874 34.5178C121.042 34.4124 121.166 34.3042 121.245 34.1933C121.295 34.1267 121.332 34.0879 121.354 34.0768C121.382 34.0602 121.43 34.0519 121.498 34.0519H121.911C121.962 34.0519 122.004 34.0657 122.037 34.0935C122.071 34.1212 122.088 34.16 122.088 34.2099C122.088 34.332 122.009 34.4789 121.852 34.6509C121.7 34.8229 121.483 34.9726 121.203 35.1002C120.927 35.2222 120.609 35.2832 120.25 35.2832ZM121.405 32.7207V32.6957C121.405 32.313 121.298 32.0024 121.085 31.7639C120.876 31.5198 120.595 31.3978 120.241 31.3978C119.887 31.3978 119.606 31.5198 119.398 31.7639C119.196 32.0024 119.094 32.313 119.094 32.6957V32.7207H121.405Z" />

</svg>
