<svg  viewBox="0 0 527 178" fill="none" xmlns="http://www.w3.org/2000/svg">
	<g clip-path="url(#clip0)">
		<path d="M151.884 21.344H167.24C177.396 21.344 186.625 25.4908 193.311 32.1667C199.995 38.8427 204.148 48.0626 204.148 58.2024V141.14C204.148 151.283 199.996 160.5 193.312 167.176C186.627 173.853 177.396 178 167.24 178H36.9028C26.7466 178 17.5171 173.853 10.8323 167.176C4.14663 160.5 -0.00561523 151.283 -0.00561523 141.14V58.2024C-0.00561523 48.0598 4.14663 38.8417 10.8323 32.1658C17.5171 25.4889 26.7466 21.344 36.9028 21.344H52.2589C53.71 16.6484 56.5454 12.5175 60.0326 9.17813C65.9621 3.49656 74.1016 0 80.4035 0H123.738C130.04 0 138.18 3.49656 144.109 9.17813C147.595 12.5175 150.43 16.6484 151.883 21.344H151.884ZM102.071 54.7488C114.49 54.7488 125.738 59.7783 133.878 67.9072C142.019 76.0369 147.055 87.2698 147.055 99.6729C147.055 112.075 142.019 123.308 133.878 131.438C125.736 139.567 114.492 144.596 102.071 144.596C89.6507 144.596 78.4057 139.567 70.2642 131.438C62.1245 123.307 57.0883 112.076 57.0883 99.6729C57.0883 87.2689 62.1245 76.0378 70.2642 67.9072C78.4038 59.7783 89.6526 54.7488 102.071 54.7488ZM124.093 77.6797C118.459 72.053 110.673 68.5732 102.071 68.5732C93.4705 68.5732 85.6828 72.053 80.0486 77.6797C74.4164 83.3064 70.9301 91.0835 70.9301 99.6729C70.9301 108.261 74.4164 116.04 80.0486 121.665C85.6828 127.291 93.4705 130.773 102.071 130.773C110.671 130.773 118.459 127.291 124.093 121.665C129.728 116.04 133.212 108.262 133.212 99.6729C133.212 91.0826 129.728 83.3064 124.093 77.6797ZM167.24 35.1676H146.015C142.194 35.1676 139.095 32.0727 139.095 28.2562C139.095 24.8443 137.177 21.6379 134.539 19.1125C131.124 15.8392 126.822 13.8244 123.739 13.8244H80.4045C77.3206 13.8244 73.0194 15.8392 69.6038 19.1125C66.966 21.6389 65.0481 24.8443 65.0481 28.2562C65.0481 32.0727 61.9495 35.1676 58.1278 35.1676H36.9037C30.5662 35.1676 24.7998 37.7616 20.6178 41.9382C16.4357 46.1158 13.8371 51.8744 13.8371 58.2034V141.141C13.8371 147.468 16.4357 153.229 20.6178 157.406C24.8008 161.582 30.5671 164.177 36.9037 164.177H167.241C173.578 164.177 179.346 161.582 183.527 157.406C187.71 153.228 190.307 147.47 190.307 141.141V58.2034C190.307 51.8763 187.709 46.1158 183.526 41.9401C179.343 37.7626 173.577 35.1676 167.241 35.1676H167.24Z" />
		<path d="M232.402 66.4556C232.086 66.4556 231.801 66.3448 231.548 66.1234C231.326 65.8701 231.215 65.5853 231.215 65.269V34.4156C231.215 34.0674 231.326 33.7826 231.548 33.5612C231.801 33.3398 232.086 33.2289 232.402 33.2289H237.53C238.289 33.2289 238.843 33.5771 239.192 34.2732L247.548 49.2252L255.904 34.2732C256.253 33.5771 256.806 33.2289 257.565 33.2289H262.645C262.994 33.2289 263.279 33.3398 263.5 33.5612C263.754 33.7826 263.88 34.0674 263.88 34.4156V65.269C263.88 65.6171 263.754 65.9019 263.5 66.1234C263.279 66.3448 262.994 66.4556 262.645 66.4556H256.996C256.647 66.4556 256.348 66.3448 256.094 66.1234C255.873 65.9019 255.761 65.6171 255.761 65.269V47.4689L250.444 57.3895C250.033 58.1174 249.478 58.4812 248.782 58.4812H246.313C245.903 58.4812 245.57 58.3863 245.316 58.1964C245.062 58.0065 244.841 57.7376 244.651 57.3895L239.287 47.4689V65.269C239.287 65.5853 239.175 65.8701 238.954 66.1234C238.733 66.3448 238.449 66.4556 238.1 66.4556H232.402ZM280.267 66.4556C279.949 66.4556 279.664 66.3448 279.41 66.1234C279.189 65.8701 279.077 65.5853 279.077 65.269V55.0636L268.065 34.7479C267.97 34.4631 267.923 34.2891 267.923 34.2257C267.923 33.9725 268.018 33.7511 268.207 33.5612C268.428 33.3398 268.682 33.2289 268.967 33.2289H274.902C275.533 33.2289 276.089 33.5612 276.563 34.2257L283.353 46.4721L290.19 34.2257C290.569 33.5612 291.122 33.2289 291.851 33.2289H297.786C298.071 33.2289 298.308 33.3398 298.498 33.5612C298.688 33.7511 298.783 33.9725 298.783 34.2257C298.783 34.384 298.75 34.558 298.688 34.7479L287.673 55.0636V65.269C287.673 65.6171 287.545 65.9019 287.293 66.1234C287.07 66.3448 286.785 66.4556 286.439 66.4556H280.267ZM325.332 66.9303C320.775 66.9303 317.214 65.8226 314.65 63.6076C312.086 61.3608 310.726 58.1805 310.567 54.0668C310.536 53.149 310.519 51.6935 310.519 49.6999C310.519 47.7063 310.536 46.2507 310.567 45.3329C310.726 41.3142 312.103 38.2129 314.697 36.0295C317.325 33.846 320.869 32.7543 325.332 32.7543C328.34 32.7543 330.951 33.2448 333.166 34.2257C335.414 35.2066 337.123 36.4567 338.294 37.9756C339.497 39.4945 340.131 41.0609 340.193 42.6748C340.193 42.9596 340.084 43.1969 339.86 43.3868C339.671 43.5767 339.433 43.6716 339.148 43.6716H332.217C331.901 43.6716 331.647 43.6241 331.457 43.5292C331.267 43.4343 331.11 43.2603 330.982 43.0071C330.571 42.0893 329.923 41.2983 329.036 40.6337C328.15 39.9376 326.916 39.5895 325.332 39.5895C321.567 39.5895 319.588 41.5831 319.398 45.5703C319.367 46.4562 319.35 47.8328 319.35 49.6999C319.35 51.5352 319.367 52.9117 319.398 53.8295C319.588 58.0065 321.615 60.0951 325.475 60.0951C327.343 60.0951 328.831 59.6204 329.938 58.6711C331.077 57.6902 331.647 56.2028 331.647 54.2092V53.3073H327.184C326.837 53.3073 326.553 53.1965 326.329 52.9751C326.109 52.7218 325.997 52.4214 325.997 52.0732V48.5607C325.997 48.2125 326.109 47.9277 326.329 47.7063C326.553 47.453 326.837 47.3265 327.184 47.3265H339.148C339.497 47.3265 339.782 47.453 340.003 47.7063C340.226 47.9277 340.335 48.2125 340.335 48.5607V53.9719C340.335 56.6616 339.718 58.9874 338.484 60.9495C337.249 62.8797 335.493 64.3671 333.214 65.4113C330.968 66.4241 328.34 66.9303 325.332 66.9303ZM343.141 66.4556C342.89 66.4556 342.652 66.3607 342.429 66.1708C342.239 65.9494 342.144 65.7121 342.144 65.4588C342.144 65.2689 342.161 65.1265 342.192 65.0316L353.349 34.558C353.444 34.1783 353.65 33.8619 353.966 33.6087C354.284 33.3554 354.695 33.2289 355.2 33.2289H362.227C362.735 33.2289 363.146 33.3554 363.462 33.6087C363.78 33.8619 363.984 34.1783 364.079 34.558L375.188 65.0316L375.283 65.4588C375.283 65.7121 375.174 65.9494 374.951 66.1708C374.761 66.3607 374.524 66.4556 374.239 66.4556H368.399C367.64 66.4556 367.134 66.1234 366.88 65.4588L365.028 60.6172H352.352L350.548 65.4588C350.296 66.1234 349.774 66.4556 348.981 66.4556H343.141ZM363.129 53.782L358.714 41.2508L354.298 53.782H363.129ZM380.214 66.4556C379.896 66.4556 379.611 66.3448 379.359 66.1234C379.136 65.8701 379.027 65.5853 379.027 65.269V34.4156C379.027 34.0674 379.136 33.7826 379.359 33.5612C379.611 33.3398 379.896 33.2289 380.214 33.2289H386.481C386.828 33.2289 387.112 33.3398 387.336 33.5612C387.556 33.7826 387.668 34.0674 387.668 34.4156V59.2881H402.054C402.4 59.2881 402.685 59.4146 402.908 59.6679C403.129 59.8893 403.241 60.1741 403.241 60.5223V65.269C403.241 65.5853 403.129 65.8701 402.908 66.1234C402.685 66.3448 402.4 66.4556 402.054 66.4556H380.214ZM408.541 66.4556C408.226 66.4556 407.941 66.3448 407.687 66.1234C407.466 65.8701 407.354 65.5853 407.354 65.269V34.4156C407.354 34.0674 407.466 33.7826 407.687 33.5612C407.941 33.3398 408.226 33.2289 408.541 33.2289H414.808C415.157 33.2289 415.442 33.3398 415.663 33.5612C415.886 33.7826 415.995 34.0674 415.995 34.4156V59.2881H430.381C430.73 59.2881 431.015 59.4146 431.236 59.6679C431.459 59.8893 431.568 60.1741 431.568 60.5223V65.269C431.568 65.5853 431.459 65.8701 431.236 66.1234C431.015 66.3448 430.73 66.4556 430.381 66.4556H408.541ZM436.871 66.4556C436.553 66.4556 436.268 66.3448 436.017 66.1234C435.793 65.8701 435.684 65.5853 435.684 65.269V34.4156C435.684 34.0674 435.793 33.7826 436.017 33.5612C436.268 33.3398 436.553 33.2289 436.871 33.2289H459.043C459.39 33.2289 459.675 33.3398 459.898 33.5612C460.119 33.7826 460.23 34.0674 460.23 34.4156V38.8775C460.23 39.1938 460.119 39.4786 459.898 39.7319C459.675 39.9533 459.39 40.0641 459.043 40.0641H443.898V46.4721H457.999C458.345 46.4721 458.63 46.5986 458.853 46.8519C459.074 47.0733 459.186 47.3581 459.186 47.7063V51.8359C459.186 52.1522 459.074 52.437 458.853 52.6903C458.63 52.9117 458.345 53.0225 457.999 53.0225H443.898V59.6204H459.423C459.77 59.6204 460.054 59.7313 460.278 59.9527C460.498 60.1741 460.61 60.4589 460.61 60.8071V65.269C460.61 65.5853 460.498 65.8701 460.278 66.1234C460.054 66.3448 459.77 66.4556 459.423 66.4556H436.871ZM467.193 66.4556C466.877 66.4556 466.592 66.3448 466.338 66.1234C466.117 65.8701 466.006 65.5853 466.006 65.269V34.4156C466.006 34.0674 466.117 33.7826 466.338 33.5612C466.592 33.3398 466.877 33.2289 467.193 33.2289H480.107C484.254 33.2289 487.482 34.1783 489.792 36.0769C492.135 37.944 493.305 40.6022 493.305 44.0513C493.305 46.2664 492.783 48.1494 491.739 49.6999C490.694 51.2504 489.255 52.437 487.418 53.2599L493.923 64.9367C494.017 65.1266 494.065 65.3005 494.065 65.4588C494.065 65.7121 493.956 65.9494 493.733 66.1708C493.543 66.3607 493.322 66.4556 493.068 66.4556H486.753C485.837 66.4556 485.187 66.0284 484.807 65.174L479.394 54.7313H474.552V65.269C474.552 65.6171 474.426 65.9019 474.172 66.1234C473.951 66.3448 473.666 66.4556 473.317 66.4556H467.193ZM480.012 47.9911C481.469 47.9911 482.575 47.6429 483.335 46.9468C484.095 46.2189 484.474 45.2221 484.474 43.9564C484.474 42.6907 484.095 41.6939 483.335 40.966C482.609 40.2065 481.5 39.8268 480.012 39.8268H474.552V47.9911H480.012ZM507.268 66.4556C506.95 66.4556 506.665 66.3448 506.411 66.1234C506.191 65.8701 506.082 65.5853 506.082 65.269V55.0636L495.067 34.7479C494.972 34.4631 494.924 34.2891 494.924 34.2257C494.924 33.9725 495.019 33.7511 495.209 33.5612C495.43 33.3398 495.684 33.2289 495.969 33.2289H501.903C502.535 33.2289 503.09 33.5612 503.565 34.2257L510.354 46.4721L517.191 34.2257C517.571 33.5612 518.124 33.2289 518.853 33.2289H524.788C525.072 33.2289 525.31 33.3398 525.5 33.5612C525.69 33.7511 525.785 33.9725 525.785 34.2257C525.785 34.384 525.751 34.558 525.69 34.7479L514.675 55.0636V65.269C514.675 65.6171 514.547 65.9019 514.295 66.1234C514.072 66.3448 513.787 66.4556 513.44 66.4556H507.268Z" />
		<path d="M231.286 130.535C231.08 130.535 230.906 130.473 230.762 130.35C230.638 130.206 230.576 130.031 230.576 129.825V109.678C230.576 109.452 230.638 109.277 230.762 109.153C230.906 109.009 231.08 108.938 231.286 108.938H238.292C241.399 108.938 243.64 109.637 245.019 111.036C246.398 112.414 247.118 114.501 247.179 117.299C247.201 117.895 247.21 118.697 247.21 119.705C247.21 120.713 247.201 121.526 247.179 122.143C247.118 124.097 246.788 125.691 246.192 126.925C245.615 128.138 244.701 129.044 243.445 129.64C242.189 130.237 240.523 130.535 238.446 130.535H231.286ZM238.292 127.912C239.711 127.912 240.832 127.717 241.655 127.326C242.498 126.935 243.106 126.318 243.476 125.475C243.868 124.611 244.084 123.459 244.124 122.019C244.164 120.785 244.186 120.014 244.186 119.705C244.186 119.376 244.164 118.615 244.124 117.422C244.084 115.386 243.599 113.905 242.674 112.979C241.748 112.033 240.236 111.56 238.137 111.56H233.601V127.912H238.292ZM257.871 130.843C255.751 130.843 254.054 130.195 252.779 128.9C251.523 127.583 250.835 125.794 250.712 123.531L250.681 122.482L250.712 121.464C250.856 119.243 251.554 117.474 252.81 116.157C254.085 114.841 255.763 114.183 257.84 114.183C260.124 114.183 261.893 114.913 263.148 116.373C264.404 117.813 265.031 119.767 265.031 122.235V122.76C265.031 122.966 264.96 123.14 264.815 123.284C264.691 123.408 264.528 123.469 264.321 123.469H253.643V123.747C253.705 125.084 254.106 126.226 254.847 127.172C255.609 128.097 256.606 128.56 257.84 128.56C258.788 128.56 259.559 128.375 260.155 128.005C260.772 127.614 261.226 127.213 261.513 126.802C261.698 126.555 261.831 126.411 261.914 126.37C262.016 126.308 262.192 126.277 262.439 126.277H263.951C264.136 126.277 264.29 126.329 264.414 126.431C264.537 126.534 264.599 126.678 264.599 126.863C264.599 127.316 264.312 127.861 263.735 128.499C263.179 129.136 262.386 129.692 261.358 130.165C260.35 130.617 259.189 130.843 257.871 130.843ZM262.099 121.341V121.248C262.099 119.829 261.707 118.677 260.926 117.792C260.164 116.887 259.136 116.435 257.84 116.435C256.544 116.435 255.516 116.887 254.754 117.792C254.014 118.677 253.643 119.829 253.643 121.248V121.341H262.099ZM274.275 130.843C272.836 130.843 271.621 130.617 270.633 130.165C269.667 129.692 268.936 129.157 268.442 128.56C267.97 127.964 267.732 127.47 267.732 127.079C267.732 126.873 267.806 126.719 267.948 126.616C268.114 126.493 268.278 126.431 268.442 126.431H269.831C270.037 126.431 270.222 126.534 270.386 126.74C270.88 127.316 271.417 127.768 271.991 128.097C272.568 128.427 273.339 128.591 274.306 128.591C275.376 128.591 276.24 128.385 276.898 127.974C277.577 127.542 277.916 126.956 277.916 126.215C277.916 125.722 277.774 125.321 277.484 125.012C277.218 124.683 276.744 124.405 276.065 124.179C275.407 123.932 274.419 123.665 273.102 123.377C271.312 122.986 270.037 122.42 269.275 121.68C268.535 120.939 268.164 119.983 268.164 118.811C268.164 118.029 268.392 117.289 268.843 116.589C269.318 115.869 269.997 115.293 270.88 114.861C271.787 114.409 272.867 114.183 274.12 114.183C275.438 114.183 276.558 114.399 277.484 114.83C278.41 115.262 279.101 115.777 279.552 116.373C280.027 116.949 280.262 117.432 280.262 117.823C280.262 118.008 280.19 118.163 280.046 118.286C279.922 118.409 279.768 118.471 279.583 118.471H278.287C278.04 118.471 277.835 118.368 277.669 118.163C277.342 117.772 277.052 117.474 276.805 117.268C276.58 117.042 276.24 116.846 275.787 116.682C275.355 116.517 274.799 116.435 274.12 116.435C273.133 116.435 272.373 116.651 271.837 117.083C271.303 117.494 271.034 118.039 271.034 118.718C271.034 119.15 271.148 119.52 271.374 119.829C271.602 120.117 272.034 120.384 272.67 120.631C273.33 120.878 274.275 121.135 275.509 121.402C277.465 121.814 278.842 122.41 279.644 123.192C280.468 123.953 280.879 124.93 280.879 126.123C280.879 127.007 280.622 127.81 280.107 128.529C279.595 129.249 278.833 129.815 277.824 130.226C276.836 130.638 275.654 130.843 274.275 130.843ZM284.914 111.498C284.71 111.498 284.535 111.437 284.39 111.313C284.266 111.169 284.205 110.994 284.205 110.789V109.123C284.205 108.917 284.266 108.742 284.39 108.598C284.535 108.454 284.71 108.382 284.914 108.382H286.859C287.065 108.382 287.241 108.454 287.383 108.598C287.528 108.742 287.599 108.917 287.599 109.123V110.789C287.599 110.994 287.528 111.169 287.383 111.313C287.241 111.437 287.065 111.498 286.859 111.498H284.914ZM285.161 130.535C284.957 130.535 284.781 130.473 284.637 130.35C284.513 130.206 284.451 130.031 284.451 129.825V115.201C284.451 114.995 284.513 114.83 284.637 114.707C284.781 114.563 284.957 114.491 285.161 114.491H286.643C286.849 114.491 287.013 114.563 287.136 114.707C287.281 114.83 287.352 114.995 287.352 115.201V129.825C287.352 130.031 287.281 130.206 287.136 130.35C287.013 130.473 286.849 130.535 286.643 130.535H285.161ZM298.5 137.323C296.812 137.323 295.454 137.035 294.426 136.459C293.396 135.903 292.667 135.266 292.235 134.546C291.803 133.826 291.566 133.178 291.526 132.602C291.504 132.396 291.566 132.222 291.711 132.077C291.875 131.933 292.05 131.862 292.235 131.862H293.717C293.902 131.862 294.056 131.903 294.18 131.985C294.303 132.088 294.405 132.263 294.488 132.509C294.735 133.168 295.136 133.733 295.692 134.206C296.266 134.7 297.152 134.947 298.346 134.947C299.867 134.947 300.988 134.618 301.71 133.96C302.429 133.322 302.79 132.18 302.79 130.535V128.437C302.253 129.116 301.574 129.661 300.753 130.072C299.929 130.463 298.951 130.658 297.821 130.658C295.64 130.658 294.004 129.969 292.914 128.591C291.844 127.192 291.279 125.423 291.217 123.284L291.186 122.42L291.217 121.587C291.279 119.469 291.853 117.71 292.945 116.311C294.035 114.892 295.661 114.183 297.821 114.183C299.981 114.183 301.667 114.975 302.882 116.558V115.232C302.882 115.026 302.944 114.851 303.067 114.707C303.21 114.563 303.385 114.491 303.592 114.491H305.012C305.216 114.491 305.391 114.563 305.536 114.707C305.679 114.851 305.752 115.026 305.752 115.232V130.195C305.752 134.947 303.333 137.323 298.5 137.323ZM298.438 128.19C299.837 128.19 300.895 127.727 301.617 126.802C302.336 125.876 302.728 124.775 302.79 123.5C302.809 123.315 302.821 122.955 302.821 122.42C302.821 121.906 302.809 121.557 302.79 121.371C302.728 120.096 302.336 118.996 301.617 118.07C300.917 117.144 299.858 116.682 298.438 116.682C296.976 116.682 295.917 117.134 295.26 118.039C294.6 118.944 294.241 120.137 294.18 121.618L294.149 122.42L294.18 123.253C294.241 124.714 294.6 125.907 295.26 126.832C295.917 127.737 296.976 128.19 298.438 128.19ZM311.051 130.535C310.844 130.535 310.669 130.473 310.526 130.35C310.403 130.206 310.341 130.031 310.341 129.825V115.201C310.341 114.995 310.403 114.83 310.526 114.707C310.669 114.563 310.844 114.491 311.051 114.491H312.501C312.705 114.491 312.872 114.563 312.995 114.707C313.137 114.83 313.211 114.995 313.211 115.201V116.558C313.807 115.797 314.507 115.211 315.309 114.8C316.131 114.388 317.149 114.183 318.365 114.183C320.34 114.183 321.871 114.82 322.963 116.095C324.074 117.35 324.629 119.027 324.629 121.125V129.825C324.629 130.031 324.556 130.206 324.413 130.35C324.29 130.473 324.124 130.535 323.919 130.535H322.376C322.17 130.535 321.994 130.473 321.852 130.35C321.728 130.206 321.667 130.031 321.667 129.825V121.279C321.667 119.819 321.306 118.687 320.587 117.885C319.886 117.083 318.868 116.682 317.531 116.682C316.235 116.682 315.205 117.093 314.445 117.916C313.683 118.718 313.304 119.839 313.304 121.279V129.825C313.304 130.031 313.23 130.206 313.088 130.35C312.964 130.473 312.798 130.535 312.594 130.535H311.051ZM338.583 136.397C338.419 136.397 338.274 136.335 338.151 136.212C338.027 136.088 337.966 135.944 337.966 135.78C337.966 135.636 338.018 135.451 338.12 135.225L340.496 129.578L334.602 115.664C334.5 115.396 334.448 115.221 334.448 115.139C334.448 114.954 334.509 114.8 334.633 114.676C334.756 114.553 334.911 114.491 335.096 114.491H336.608C336.938 114.491 337.185 114.666 337.348 115.016L342.039 126.246L346.853 115.016C347.02 114.666 347.276 114.491 347.625 114.491H349.075C349.261 114.491 349.415 114.553 349.538 114.676C349.662 114.8 349.724 114.944 349.724 115.108C349.724 115.17 349.674 115.355 349.569 115.664L340.805 135.872C340.641 136.222 340.385 136.397 340.033 136.397H338.583ZM358.834 130.843C356.57 130.843 354.811 130.206 353.557 128.93C352.323 127.655 351.663 125.958 351.582 123.84L351.551 122.513L351.582 121.186C351.663 119.088 352.332 117.402 353.588 116.126C354.842 114.83 356.591 114.183 358.834 114.183C361.075 114.183 362.825 114.83 364.081 116.126C365.334 117.402 366.004 119.088 366.087 121.186C366.106 121.412 366.117 121.855 366.117 122.513C366.117 123.171 366.106 123.613 366.087 123.84C366.004 125.958 365.334 127.655 364.081 128.93C362.846 130.206 361.097 130.843 358.834 130.843ZM358.834 128.468C360.131 128.468 361.149 128.056 361.89 127.234C362.649 126.411 363.062 125.228 363.124 123.685C363.143 123.48 363.155 123.089 363.155 122.513C363.155 121.937 363.143 121.546 363.124 121.341C363.062 119.798 362.649 118.615 361.89 117.792C361.149 116.97 360.131 116.558 358.834 116.558C357.538 116.558 356.508 116.97 355.748 117.792C354.986 118.615 354.585 119.798 354.545 121.341L354.514 122.513L354.545 123.685C354.585 125.228 354.986 126.411 355.748 127.234C356.508 128.056 357.538 128.468 358.834 128.468ZM375.969 130.843C374.013 130.843 372.501 130.216 371.433 128.961C370.362 127.686 369.828 125.999 369.828 123.901V115.201C369.828 114.995 369.89 114.83 370.013 114.707C370.155 114.563 370.331 114.491 370.538 114.491H372.081C372.285 114.491 372.451 114.563 372.574 114.707C372.717 114.83 372.79 114.995 372.79 115.201V123.747C372.79 126.812 374.127 128.344 376.802 128.344C378.098 128.344 379.126 127.943 379.888 127.141C380.648 126.318 381.03 125.187 381.03 123.747V115.201C381.03 114.995 381.092 114.83 381.215 114.707C381.358 114.563 381.533 114.491 381.74 114.491H383.283C383.487 114.491 383.653 114.563 383.777 114.707C383.9 114.83 383.962 114.995 383.962 115.201V129.825C383.962 130.031 383.9 130.206 383.777 130.35C383.653 130.473 383.487 130.535 383.283 130.535H381.833C381.626 130.535 381.45 130.473 381.308 130.35C381.184 130.206 381.123 130.031 381.123 129.825V128.468C380.546 129.249 379.846 129.846 379.024 130.257C378.2 130.648 377.182 130.843 375.969 130.843ZM389.256 130.535C389.049 130.535 388.876 130.473 388.731 130.35C388.608 130.206 388.546 130.031 388.546 129.825V115.232C388.546 115.026 388.608 114.851 388.731 114.707C388.876 114.563 389.049 114.491 389.256 114.491H390.675C390.882 114.491 391.055 114.563 391.2 114.707C391.345 114.851 391.416 115.026 391.416 115.232V116.589C392.259 115.191 393.7 114.491 395.736 114.491H396.94C397.146 114.491 397.31 114.563 397.434 114.707C397.578 114.83 397.65 114.995 397.65 115.201V116.466C397.65 116.671 397.578 116.836 397.434 116.959C397.31 117.083 397.146 117.144 396.94 117.144H395.088C393.977 117.144 393.104 117.474 392.465 118.132C391.827 118.77 391.508 119.644 391.508 120.754V129.825C391.508 130.031 391.437 130.206 391.292 130.35C391.148 130.473 390.974 130.535 390.768 130.535H389.256ZM407.85 130.535C407.646 130.535 407.47 130.473 407.326 130.35C407.202 130.206 407.14 130.031 407.14 129.825V109.339C407.14 109.133 407.202 108.968 407.326 108.845C407.47 108.701 407.646 108.629 407.85 108.629H409.301C409.507 108.629 409.671 108.701 409.794 108.845C409.939 108.968 410.01 109.133 410.01 109.339V129.825C410.01 130.031 409.939 130.206 409.794 130.35C409.671 130.473 409.507 130.535 409.301 130.535H407.85ZM415.076 111.498C414.872 111.498 414.696 111.437 414.552 111.313C414.428 111.169 414.366 110.994 414.366 110.789V109.123C414.366 108.917 414.428 108.742 414.552 108.598C414.696 108.454 414.872 108.382 415.076 108.382H417.02C417.227 108.382 417.403 108.454 417.545 108.598C417.69 108.742 417.761 108.917 417.761 109.123V110.789C417.761 110.994 417.69 111.169 417.545 111.313C417.403 111.437 417.227 111.498 417.02 111.498H415.076ZM415.323 130.535C415.119 130.535 414.943 130.473 414.798 130.35C414.675 130.206 414.613 130.031 414.613 129.825V115.201C414.613 114.995 414.675 114.83 414.798 114.707C414.943 114.563 415.119 114.491 415.323 114.491H416.804C417.011 114.491 417.175 114.563 417.298 114.707C417.443 114.83 417.514 114.995 417.514 115.201V129.825C417.514 130.031 417.443 130.206 417.298 130.35C417.175 130.473 417.011 130.535 416.804 130.535H415.323ZM424.403 130.535C424.197 130.535 424.021 130.473 423.879 130.35C423.755 130.206 423.693 130.031 423.693 129.825V116.959H421.07C420.864 116.959 420.688 116.898 420.546 116.774C420.422 116.63 420.36 116.456 420.36 116.25V115.201C420.36 114.995 420.422 114.83 420.546 114.707C420.688 114.563 420.864 114.491 421.07 114.491H423.693V112.948C423.693 109.452 425.462 107.703 429.001 107.703H430.853C431.057 107.703 431.223 107.775 431.347 107.919C431.489 108.043 431.563 108.207 431.563 108.413V109.462C431.563 109.668 431.489 109.842 431.347 109.987C431.223 110.11 431.057 110.172 430.853 110.172H429.063C428.137 110.172 427.489 110.418 427.119 110.912C426.749 111.385 426.563 112.115 426.563 113.103V114.491H430.544C430.749 114.491 430.915 114.563 431.038 114.707C431.181 114.83 431.254 114.995 431.254 115.201V116.25C431.254 116.456 431.181 116.63 431.038 116.774C430.915 116.898 430.749 116.959 430.544 116.959H426.563V129.825C426.563 130.031 426.49 130.206 426.347 130.35C426.224 130.473 426.058 130.535 425.854 130.535H424.403ZM440.08 130.843C437.96 130.843 436.263 130.195 434.988 128.9C433.733 127.583 433.044 125.794 432.921 123.531L432.89 122.482L432.921 121.464C433.063 119.243 433.763 117.474 435.019 116.157C436.294 114.841 437.97 114.183 440.049 114.183C442.333 114.183 444.102 114.913 445.357 116.373C446.611 117.813 447.24 119.767 447.24 122.235V122.76C447.24 122.966 447.166 123.14 447.024 123.284C446.9 123.408 446.734 123.469 446.53 123.469H435.852V123.747C435.914 125.084 436.315 126.226 437.056 127.172C437.816 128.097 438.815 128.56 440.049 128.56C440.994 128.56 441.766 128.375 442.364 128.005C442.981 127.614 443.432 127.213 443.722 126.802C443.907 126.555 444.04 126.411 444.123 126.37C444.225 126.308 444.401 126.277 444.648 126.277H446.16C446.345 126.277 446.499 126.329 446.623 126.431C446.746 126.534 446.808 126.678 446.808 126.863C446.808 127.316 446.518 127.861 445.944 128.499C445.388 129.136 444.595 129.692 443.567 130.165C442.559 130.617 441.395 130.843 440.08 130.843ZM444.308 121.341V121.248C444.308 119.829 443.916 118.677 443.135 117.792C442.373 116.887 441.345 116.435 440.049 116.435C438.753 116.435 437.723 116.887 436.963 117.792C436.223 118.677 435.852 119.829 435.852 121.248V121.341H444.308Z"  />
	</g>
	<defs>
		<clipPath id="clip0">
			<rect width="527" height="178" fill="white" />
		</clipPath>
	</defs>
</svg>
