<svg viewBox="0 0 1600 480" fill="none" xmlns="http://www.w3.org/2000/svg">
	<path d="M1600 414.141L1546.67 437.221C1493.33 459.438 1386.67 506.891 1280 460.085C1173.33 414.141 1066.67 276.094 960 183.991C853.333 92.7504 746.667 45.2967 640 34.5118C533.333 23.7268 420.167 99.8476 313.5 100.495C206.833 99.8476 106.667 23.7268 53.3334 11.432L0 -1.00136e-05H53.3334C106.667 -1.00136e-05 213.333 -1.00136e-05 320 -1.00136e-05C426.667 -1.00136e-05 533.333 -1.00136e-05 640 -1.00136e-05C746.667 -1.00136e-05 853.333 -1.00136e-05 960 -1.00136e-05C1066.67 -1.00136e-05 1173.33 -1.00136e-05 1280 -1.00136e-05C1386.67 -1.00136e-05 1493.33 -1.00136e-05 1546.67 -1.00136e-05H1600V414.141Z" fill="url(#paint0_linear)" />
	<defs>
		<linearGradient id="paint0_linear" x1="800" y1="480" x2="800" y2="0" gradientUnits="userSpaceOnUse">
			<stop offset="0.234375" stop-color="#E91962" />
			<stop offset="1" stop-color="#2441C9" />
		</linearGradient>
	</defs>
</svg>
